<svg xmlns="http://www.w3.org/2000/svg" xmlns:xlink="http://www.w3.org/1999/xlink" version="1.1" style="" xml:space="preserve" width="195.055" height="195.055"><rect id="backgroundrect" width="100%" height="100%" x="0" y="0" fill="none" stroke="none"/>
















<g class="currentLayer" style=""><title>Layer 1</title><g id="svg_1" class="selected" fill="#ffffff" fill-opacity="1">
	<g id="svg_2" fill="#ffffff" fill-opacity="1">
		<polygon style="" points="33.138,94.882 73.787,54.245 70.047,50.501 23.025,97.527 70.047,144.55 73.787,140.813     33.138,100.165 166.837,100.165 166.837,94.882   " id="svg_3" fill="#ffffff" fill-opacity="1"/>
		<path style="" d="M97.529,0C43.753,0,0.005,43.751,0.005,97.531c0,53.769,43.748,97.524,97.524,97.524    s97.52-43.755,97.52-97.524C195.049,43.751,151.305,0,97.529,0z M97.529,190.441c-51.231,0-92.914-41.679-92.914-92.911    c0-51.242,41.683-92.925,92.914-92.925c51.228,0,92.914,41.683,92.914,92.921C190.443,148.759,148.757,190.441,97.529,190.441z" id="svg_4" fill="#ffffff" fill-opacity="1"/>
	</g>
</g><g id="svg_5">
</g><g id="svg_6">
</g><g id="svg_7">
</g><g id="svg_8">
</g><g id="svg_9">
</g><g id="svg_10">
</g><g id="svg_11">
</g><g id="svg_12">
</g><g id="svg_13">
</g><g id="svg_14">
</g><g id="svg_15">
</g><g id="svg_16">
</g><g id="svg_17">
</g><g id="svg_18">
</g><g id="svg_19">
</g></g></svg>